<svg xmlns="http://www.w3.org/2000/svg" width="14" height="14" class="uil-comment" preserveAspectRatio="xMidYMid" viewBox="0 0 100 100"><defs><filter id="cu-invert"><feColorMatrix in="SourceGraphic" type="matrix" values="-1 0 0 0 1 0 -1 0 0 1 0 0 -1 0 1 0 0 0 1 0"/></filter></defs><rect width="100" height="100" x="0" y="0" fill="none" class="bk"/><path d="M78,19H22c-6.6,0-12,5.4-12,12v31c0,6.6,5.4,12,12,12h37.2c0.4,3,1.8,5.6,3.7,7.6c2.4,2.5,5.1,4.1,9.1,4 c-1.4-2.1-2-7.2-2-10.3c0-0.4,0-0.8,0-1.3h8c6.6,0,12-5.4,12-12V31C90,24.4,84.6,19,78,19z"/><circle cx="30" cy="47" r="5" filter="url(#cu-invert)"><animate attributeName="opacity" dur="1s" from="0" keyTimes="0;0.2;1" repeatCount="indefinite" to="1" values="0;1;1"/></circle><circle cx="50" cy="47" r="5" filter="url(#cu-invert)"><animate attributeName="opacity" dur="1s" from="0" keyTimes="0;0.2;0.4;1" repeatCount="indefinite" to="1" values="0;0;1;1"/></circle><circle cx="70" cy="47" r="5" filter="url(#cu-invert)"><animate attributeName="opacity" dur="1s" from="0" keyTimes="0;0.4;0.6;1" repeatCount="indefinite" to="1" values="0;0;1;1"/></circle></svg>