<svg xmlns="http://www.w3.org/2000/svg" width="14" height="14" class="uil-poi" preserveAspectRatio="xMidYMid" viewBox="0 0 100 100"><rect width="100" height="100" x="0" y="0" fill="none" class="bk"/><g><g transform="translate(50,45)"><g><path d="M77.5,45.3c0-15.3-12.3-27.8-27.5-27.8S22.5,29.9,22.5,45.3c0,13.3,9.3,24.5,21.7,27.1L50,82.5l5.8-10.1 C68.2,69.7,77.5,58.6,77.5,45.3z M50.3,55.4c-5.4,0-9.7-4.4-9.7-9.8c0-5.4,4.3-9.8,9.7-9.8s9.7,4.4,9.7,9.8 C60,51,55.7,55.4,50.3,55.4z" transform="translate(-50,-45)"><animateTransform attributeName="transform" calcMode="spline" dur="1s" from="0,17" keySplines="0.4 0.8 0.4 0.8;0.8 0.4 0.8 0.4" keyTimes="0;0.5;1" repeatCount="indefinite" to="0,17" type="translate" values="0,17;0,-17;0,17"/></path></g><animateTransform attributeName="transform" dur="1s" from="0" repeatCount="indefinite" to="360" type="none"/></g></g></svg>